# xmcd CD database file
#
# Track frame offsets:
#	150
#	23354
#	39381
#	57636
#	73520
#
# Disc length: 1190 seconds
#
# Revision: 0
# Processed by: cddbd v1.5.1PL2 Copyright (c) Steve Scherf et al.
# Submitted via: CDex 1.51
#
DISCID=3904a405
DTITLE=HAPPY UNDER RIVER - good-bye daydream
DYEAR=2004
DGENRE=JPop
TTITLE0=サヨウナラ
TTITLE1=ヤングメン
TTITLE2=光と影
TTITLE3=FOREVER
TTITLE4=白昼夢
EXTD=YEAR: 2004
EXTT0=
EXTT1=
EXTT2=
EXTT3=
EXTT4=
PLAYORDER=
